<?xml version="1.0" standalone="no"?>
<!DOCTYPE svg PUBLIC "-//W3C//DTD SVG 20010904//EN"
 "http://www.w3.org/TR/2001/REC-SVG-20010904/DTD/svg10.dtd">
<svg version="1.0" xmlns="http://www.w3.org/2000/svg"
 width="720.000000pt" height="405.000000pt" viewBox="0 0 720.000000 405.000000"
 preserveAspectRatio="xMidYMid meet">

<g transform="translate(0.000000,405.000000) scale(0.100000,-0.100000)"
fill="#000000" stroke="none">
<path d="M0 2025 l0 -2025 3600 0 3600 0 0 2025 0 2025 -3600 0 -3600 0 0
-2025z m6770 5 l0 -1610 -3180 0 -3180 0 0 1610 0 1610 3180 0 3180 0 0 -1610z"/>
<path d="M2252 3119 c-121 -61 -138 -243 -32 -332 95 -81 244 -47 300 68 44
92 16 192 -73 259 -42 31 -140 33 -195 5z"/>
<path d="M3572 2949 c-266 -31 -435 -190 -508 -476 -53 -209 -55 -560 -4 -786
56 -250 202 -413 416 -463 92 -21 261 -21 344 1 80 21 190 72 248 114 l42 31
0 374 c0 206 -3 381 -6 390 -5 14 -38 16 -260 16 l-254 0 0 -115 0 -114 118
-3 117 -3 3 -212 c3 -243 8 -229 -96 -253 -100 -23 -230 14 -288 83 -41 48
-81 142 -101 237 -25 117 -25 500 -1 605 26 114 56 181 105 235 64 71 110 92
212 98 119 7 232 -22 333 -85 21 -13 49 -23 63 -23 l25 0 0 128 0 129 -62 26
c-98 40 -156 55 -248 67 -93 11 -94 11 -198 -1z"/>
<path d="M4696 2939 c-66 -16 -155 -70 -206 -126 -128 -140 -190 -383 -190
-743 0 -585 164 -859 514 -862 51 -1 117 5 147 12 221 52 349 249 389 600 18
151 7 506 -18 631 -57 273 -179 435 -364 485 -59 15 -212 17 -272 3z m222
-236 c36 -17 106 -112 100 -135 -1 -8 -100 -166 -218 -351 l-215 -336 -8 37
c-14 59 -1 426 18 512 19 90 72 204 113 243 58 56 132 66 210 30z m164 -798
c-22 -356 -85 -474 -250 -475 -35 0 -75 6 -90 14 -38 20 -78 65 -96 106 l-14
36 221 349 222 348 9 -99 c5 -63 5 -165 -2 -279z"/>
<path d="M610 2085 l0 -845 145 0 145 0 0 310 0 311 42 55 c27 36 44 52 51 45
6 -6 97 -169 203 -363 l192 -353 167 -3 c146 -2 167 -1 162 13 -4 8 -130 222
-282 475 l-275 460 266 356 c146 196 268 362 271 370 4 12 -22 14 -153 14
l-159 -1 -240 -321 -240 -322 -5 320 -5 319 -142 3 -143 3 0 -846z"/>
<path d="M5480 2919 c0 -6 97 -194 216 -418 119 -223 217 -411 217 -417 0 -6
-102 -195 -226 -422 -125 -226 -227 -414 -227 -417 0 -3 68 -4 152 -3 l152 3
150 287 c83 158 153 288 156 288 4 0 73 -130 155 -290 l150 -290 153 0 153 0
-17 32 c-9 18 -111 208 -225 421 -115 213 -209 391 -209 396 0 4 94 190 210
412 115 222 210 410 210 417 0 9 -36 12 -145 12 l-145 0 -142 -285 c-79 -157
-145 -285 -148 -285 -3 0 -69 128 -148 285 l-143 285 -149 0 c-103 0 -150 -3
-150 -11z"/>
<path d="M1942 2398 l3 -113 137 -3 137 -3 6 -32 c3 -18 4 -201 3 -407 l-3
-375 -182 -3 -183 -2 0 -110 0 -110 490 0 490 0 0 110 0 110 -149 0 c-82 0
-156 3 -165 6 -14 5 -16 60 -16 509 0 277 -3 510 -6 519 -5 14 -40 16 -285 16
l-280 0 3 -112z"/>
</g>
</svg>
